<mxfile host="Electron" agent="Mozilla/5.0 (Macintosh; Intel Mac OS X 10_15_7) AppleWebKit/537.36 (KHTML, like Gecko) draw.io/28.0.6 Chrome/138.0.7204.100 Electron/37.2.3 Safari/537.36" version="28.0.6">
  <diagram name="Page-1" id="HN1fuRoJKbW_RaGyGOyY">
    <mxGraphModel dx="2463" dy="1140" grid="1" gridSize="10" guides="1" tooltips="1" connect="1" arrows="1" fold="1" page="1" pageScale="1" pageWidth="850" pageHeight="1100" math="0" shadow="0">
      <root>
        <mxCell id="0" />
        <mxCell id="1" parent="0" />
        <mxCell id="5q8JlO-GxAO9OlbAATHw-1" value="K8s Cluster" style="verticalAlign=top;align=left;spacingTop=8;spacingLeft=2;spacingRight=12;shape=cube;size=10;direction=south;fontStyle=4;html=1;whiteSpace=wrap;fillColor=#f5f5f5;strokeColor=#666666;fontColor=#333333;" vertex="1" parent="1">
          <mxGeometry x="840" y="290" width="290" height="350" as="geometry" />
        </mxCell>
        <mxCell id="5q8JlO-GxAO9OlbAATHw-3" value="Playwright Executor" style="verticalAlign=top;align=left;spacingTop=8;spacingLeft=2;spacingRight=12;shape=cube;size=10;direction=south;fontStyle=4;html=1;whiteSpace=wrap;fillColor=#f5f5f5;strokeColor=#666666;fontColor=#333333;" vertex="1" parent="1">
          <mxGeometry x="-90" y="290" width="800" height="350" as="geometry" />
        </mxCell>
        <mxCell id="5q8JlO-GxAO9OlbAATHw-4" value="Headless Browser Environment" style="verticalAlign=top;align=left;spacingTop=8;spacingLeft=2;spacingRight=12;shape=cube;size=10;direction=south;fontStyle=4;html=1;whiteSpace=wrap;fillColor=#CCCCCC;strokeColor=#36393d;" vertex="1" parent="1">
          <mxGeometry x="435" y="320" width="250" height="300" as="geometry" />
        </mxCell>
        <mxCell id="5q8JlO-GxAO9OlbAATHw-5" value="&lt;p style=&quot;margin:0px;margin-top:6px;text-align:center;&quot;&gt;&lt;b&gt;&amp;lt;&amp;lt;subsystem&amp;gt;&amp;gt;&lt;/b&gt;&lt;/p&gt;&lt;p style=&quot;margin:0px;margin-top:6px;text-align:center;&quot;&gt;Artillery Runner&lt;/p&gt;" style="align=left;overflow=fill;html=1;dropTarget=0;whiteSpace=wrap;fillColor=#CCCCCC;strokeColor=#36393d;" vertex="1" parent="1">
          <mxGeometry x="-60" y="375" width="240" height="190" as="geometry" />
        </mxCell>
        <mxCell id="5q8JlO-GxAO9OlbAATHw-6" value="" style="shape=component;jettyWidth=8;jettyHeight=4;" vertex="1" parent="5q8JlO-GxAO9OlbAATHw-5">
          <mxGeometry x="1" width="20" height="20" relative="1" as="geometry">
            <mxPoint x="-24" y="4" as="offset" />
          </mxGeometry>
        </mxCell>
        <mxCell id="5q8JlO-GxAO9OlbAATHw-21" style="edgeStyle=orthogonalEdgeStyle;rounded=0;orthogonalLoop=1;jettySize=auto;html=1;endArrow=none;startFill=0;entryX=0;entryY=0.5;entryDx=0;entryDy=0;" edge="1" parent="1" source="5q8JlO-GxAO9OlbAATHw-22" target="5q8JlO-GxAO9OlbAATHw-28">
          <mxGeometry relative="1" as="geometry" />
        </mxCell>
        <mxCell id="5q8JlO-GxAO9OlbAATHw-22" value="" style="shape=providedRequiredInterface;html=1;verticalLabelPosition=bottom;sketch=0;direction=west;" vertex="1" parent="1">
          <mxGeometry x="250" y="410" width="30" height="30" as="geometry" />
        </mxCell>
        <mxCell id="5q8JlO-GxAO9OlbAATHw-23" value="Landing Page UI Selectors" style="text;html=1;align=center;verticalAlign=middle;resizable=0;points=[];autosize=1;strokeColor=none;fillColor=none;" vertex="1" parent="1">
          <mxGeometry x="265" y="386" width="170" height="30" as="geometry" />
        </mxCell>
        <mxCell id="5q8JlO-GxAO9OlbAATHw-24" style="edgeStyle=orthogonalEdgeStyle;rounded=0;orthogonalLoop=1;jettySize=auto;html=1;endArrow=none;startFill=0;" edge="1" parent="1" source="5q8JlO-GxAO9OlbAATHw-25" target="5q8JlO-GxAO9OlbAATHw-47">
          <mxGeometry relative="1" as="geometry" />
        </mxCell>
        <mxCell id="5q8JlO-GxAO9OlbAATHw-25" value="" style="shape=providedRequiredInterface;html=1;verticalLabelPosition=bottom;sketch=0;direction=west;" vertex="1" parent="1">
          <mxGeometry x="250" y="530" width="30" height="30" as="geometry" />
        </mxCell>
        <mxCell id="5q8JlO-GxAO9OlbAATHw-26" value="Theia Client UI Selectors" style="text;html=1;align=center;verticalAlign=middle;resizable=0;points=[];autosize=1;strokeColor=none;fillColor=none;" vertex="1" parent="1">
          <mxGeometry x="265" y="510" width="160" height="30" as="geometry" />
        </mxCell>
        <mxCell id="5q8JlO-GxAO9OlbAATHw-27" style="edgeStyle=orthogonalEdgeStyle;rounded=0;orthogonalLoop=1;jettySize=auto;html=1;endArrow=none;startFill=0;" edge="1" parent="1" source="5q8JlO-GxAO9OlbAATHw-28" target="5q8JlO-GxAO9OlbAATHw-34">
          <mxGeometry relative="1" as="geometry" />
        </mxCell>
        <mxCell id="5q8JlO-GxAO9OlbAATHw-28" value="«component»&lt;br&gt;&lt;b&gt;:Theia Landing Page&lt;/b&gt;" style="html=1;dropTarget=0;whiteSpace=wrap;" vertex="1" parent="1">
          <mxGeometry x="467.5" y="390" width="165" height="70" as="geometry" />
        </mxCell>
        <mxCell id="5q8JlO-GxAO9OlbAATHw-29" value="" style="shape=module;jettyWidth=8;jettyHeight=4;" vertex="1" parent="5q8JlO-GxAO9OlbAATHw-28">
          <mxGeometry x="1" width="20" height="20" relative="1" as="geometry">
            <mxPoint x="-27" y="7" as="offset" />
          </mxGeometry>
        </mxCell>
        <mxCell id="5q8JlO-GxAO9OlbAATHw-31" value="«component»&lt;br&gt;&lt;b&gt;:Theia Operator&lt;/b&gt;" style="html=1;dropTarget=0;whiteSpace=wrap;" vertex="1" parent="1">
          <mxGeometry x="880" y="390" width="165" height="70" as="geometry" />
        </mxCell>
        <mxCell id="5q8JlO-GxAO9OlbAATHw-32" value="" style="shape=module;jettyWidth=8;jettyHeight=4;" vertex="1" parent="5q8JlO-GxAO9OlbAATHw-31">
          <mxGeometry x="1" width="20" height="20" relative="1" as="geometry">
            <mxPoint x="-27" y="7" as="offset" />
          </mxGeometry>
        </mxCell>
        <mxCell id="5q8JlO-GxAO9OlbAATHw-33" style="edgeStyle=orthogonalEdgeStyle;rounded=0;orthogonalLoop=1;jettySize=auto;html=1;endArrow=none;startFill=0;" edge="1" parent="1" source="5q8JlO-GxAO9OlbAATHw-34" target="5q8JlO-GxAO9OlbAATHw-31">
          <mxGeometry relative="1" as="geometry" />
        </mxCell>
        <mxCell id="5q8JlO-GxAO9OlbAATHw-34" value="" style="shape=providedRequiredInterface;html=1;verticalLabelPosition=bottom;sketch=0;direction=west;" vertex="1" parent="1">
          <mxGeometry x="730" y="410" width="30" height="30" as="geometry" />
        </mxCell>
        <mxCell id="5q8JlO-GxAO9OlbAATHw-35" value="Operator API" style="text;html=1;align=center;verticalAlign=middle;resizable=0;points=[];autosize=1;strokeColor=none;fillColor=none;" vertex="1" parent="1">
          <mxGeometry x="750" y="390" width="90" height="30" as="geometry" />
        </mxCell>
        <mxCell id="5q8JlO-GxAO9OlbAATHw-36" style="edgeStyle=orthogonalEdgeStyle;rounded=0;orthogonalLoop=1;jettySize=auto;html=1;endArrow=none;startFill=0;" edge="1" parent="1" source="5q8JlO-GxAO9OlbAATHw-37">
          <mxGeometry relative="1" as="geometry">
            <mxPoint x="880" y="545" as="targetPoint" />
          </mxGeometry>
        </mxCell>
        <mxCell id="5q8JlO-GxAO9OlbAATHw-37" value="" style="shape=providedRequiredInterface;html=1;verticalLabelPosition=bottom;sketch=0;direction=west;" vertex="1" parent="1">
          <mxGeometry x="730" y="530" width="30" height="30" as="geometry" />
        </mxCell>
        <mxCell id="5q8JlO-GxAO9OlbAATHw-38" value="Session API" style="text;html=1;align=center;verticalAlign=middle;resizable=0;points=[];autosize=1;strokeColor=none;fillColor=none;" vertex="1" parent="1">
          <mxGeometry x="750" y="510" width="90" height="30" as="geometry" />
        </mxCell>
        <mxCell id="5q8JlO-GxAO9OlbAATHw-42" value="«component»&lt;br&gt;&lt;b&gt;:Theia Client 1..N&lt;/b&gt;" style="html=1;dropTarget=0;whiteSpace=wrap;" vertex="1" parent="1">
          <mxGeometry x="479.5" y="522" width="165" height="70" as="geometry" />
        </mxCell>
        <mxCell id="5q8JlO-GxAO9OlbAATHw-43" value="«component»&lt;br&gt;&lt;b&gt;:Theia Client 1..N&lt;/b&gt;" style="html=1;dropTarget=0;whiteSpace=wrap;" vertex="1" parent="1">
          <mxGeometry x="473.5" y="516" width="165" height="70" as="geometry" />
        </mxCell>
        <mxCell id="5q8JlO-GxAO9OlbAATHw-44" style="edgeStyle=orthogonalEdgeStyle;rounded=0;orthogonalLoop=1;jettySize=auto;html=1;entryX=1;entryY=0.5;entryDx=0;entryDy=0;entryPerimeter=0;endArrow=none;startFill=0;" edge="1" parent="1" target="5q8JlO-GxAO9OlbAATHw-22">
          <mxGeometry relative="1" as="geometry">
            <Array as="points">
              <mxPoint x="200" y="490" />
              <mxPoint x="200" y="425" />
            </Array>
            <mxPoint x="60.04761904761881" y="490" as="sourcePoint" />
          </mxGeometry>
        </mxCell>
        <mxCell id="5q8JlO-GxAO9OlbAATHw-45" style="edgeStyle=orthogonalEdgeStyle;rounded=0;orthogonalLoop=1;jettySize=auto;html=1;entryX=1;entryY=0.5;entryDx=0;entryDy=0;entryPerimeter=0;endArrow=none;startFill=0;" edge="1" parent="1" target="5q8JlO-GxAO9OlbAATHw-25">
          <mxGeometry relative="1" as="geometry">
            <Array as="points">
              <mxPoint x="200" y="490" />
              <mxPoint x="200" y="545" />
            </Array>
            <mxPoint x="60.04761904761881" y="490" as="sourcePoint" />
          </mxGeometry>
        </mxCell>
        <mxCell id="5q8JlO-GxAO9OlbAATHw-47" value="«component»&lt;br&gt;&lt;b&gt;:Theia Client 1..N&lt;/b&gt;" style="html=1;dropTarget=0;whiteSpace=wrap;" vertex="1" parent="1">
          <mxGeometry x="467.5" y="510" width="165" height="70" as="geometry" />
        </mxCell>
        <mxCell id="5q8JlO-GxAO9OlbAATHw-48" value="" style="shape=module;jettyWidth=8;jettyHeight=4;" vertex="1" parent="5q8JlO-GxAO9OlbAATHw-47">
          <mxGeometry x="1" width="20" height="20" relative="1" as="geometry">
            <mxPoint x="-27" y="7" as="offset" />
          </mxGeometry>
        </mxCell>
        <mxCell id="5q8JlO-GxAO9OlbAATHw-49" style="edgeStyle=orthogonalEdgeStyle;rounded=0;orthogonalLoop=1;jettySize=auto;html=1;endArrow=none;startFill=0;" edge="1" parent="1" source="5q8JlO-GxAO9OlbAATHw-47" target="5q8JlO-GxAO9OlbAATHw-37">
          <mxGeometry relative="1" as="geometry" />
        </mxCell>
        <mxCell id="5q8JlO-GxAO9OlbAATHw-52" value="«component»&lt;br&gt;&lt;b&gt;:Theia Client 1..N&lt;/b&gt;" style="html=1;dropTarget=0;whiteSpace=wrap;" vertex="1" parent="1">
          <mxGeometry x="-16.5" y="460" width="165" height="70" as="geometry" />
        </mxCell>
        <mxCell id="5q8JlO-GxAO9OlbAATHw-53" value="«component»&lt;br&gt;&lt;b&gt;:Theia Client 1..N&lt;/b&gt;" style="html=1;dropTarget=0;whiteSpace=wrap;" vertex="1" parent="1">
          <mxGeometry x="-22.5" y="451" width="165" height="70" as="geometry" />
        </mxCell>
        <mxCell id="5q8JlO-GxAO9OlbAATHw-54" value="«component»&lt;br&gt;&lt;b&gt;:Virtual Student 1..N&lt;/b&gt;" style="html=1;dropTarget=0;whiteSpace=wrap;" vertex="1" parent="1">
          <mxGeometry x="-28.5" y="445" width="165" height="70" as="geometry" />
        </mxCell>
        <mxCell id="5q8JlO-GxAO9OlbAATHw-55" value="" style="shape=module;jettyWidth=8;jettyHeight=4;" vertex="1" parent="5q8JlO-GxAO9OlbAATHw-54">
          <mxGeometry x="1" width="20" height="20" relative="1" as="geometry">
            <mxPoint x="-27" y="7" as="offset" />
          </mxGeometry>
        </mxCell>
        <mxCell id="5q8JlO-GxAO9OlbAATHw-56" value="«component»&lt;br&gt;&lt;b&gt;:Theia Client 1..N&lt;/b&gt;" style="html=1;dropTarget=0;whiteSpace=wrap;" vertex="1" parent="1">
          <mxGeometry x="892" y="522" width="165" height="70" as="geometry" />
        </mxCell>
        <mxCell id="5q8JlO-GxAO9OlbAATHw-57" value="«component»&lt;br&gt;&lt;b&gt;:Theia Client 1..N&lt;/b&gt;" style="html=1;dropTarget=0;whiteSpace=wrap;" vertex="1" parent="1">
          <mxGeometry x="886" y="516" width="165" height="70" as="geometry" />
        </mxCell>
        <mxCell id="5q8JlO-GxAO9OlbAATHw-58" value="«component»&lt;br&gt;&lt;b&gt;:Theia Session 1..N&lt;/b&gt;" style="html=1;dropTarget=0;whiteSpace=wrap;" vertex="1" parent="1">
          <mxGeometry x="880" y="510" width="165" height="70" as="geometry" />
        </mxCell>
        <mxCell id="5q8JlO-GxAO9OlbAATHw-59" value="" style="shape=module;jettyWidth=8;jettyHeight=4;" vertex="1" parent="5q8JlO-GxAO9OlbAATHw-58">
          <mxGeometry x="1" width="20" height="20" relative="1" as="geometry">
            <mxPoint x="-27" y="7" as="offset" />
          </mxGeometry>
        </mxCell>
        <mxCell id="5q8JlO-GxAO9OlbAATHw-30" style="edgeStyle=orthogonalEdgeStyle;rounded=0;orthogonalLoop=1;jettySize=auto;html=1;entryX=1;entryY=0.5;entryDx=0;entryDy=0;exitX=1;exitY=0.5;exitDx=0;exitDy=0;" edge="1" parent="1" source="5q8JlO-GxAO9OlbAATHw-31">
          <mxGeometry relative="1" as="geometry">
            <Array as="points">
              <mxPoint x="1090" y="405" />
              <mxPoint x="1090" y="545" />
            </Array>
            <mxPoint x="1045" y="545" as="targetPoint" />
          </mxGeometry>
        </mxCell>
      </root>
    </mxGraphModel>
  </diagram>
</mxfile>
